<?xml version="1.0" encoding="UTF-8" standalone="no"?>
<svg
   xmlns:dc="http://purl.org/dc/elements/1.1/"
   xmlns:cc="http://creativecommons.org/ns#"
   xmlns:rdf="http://www.w3.org/1999/02/22-rdf-syntax-ns#"
   xmlns:svg="http://www.w3.org/2000/svg"
   xmlns="http://www.w3.org/2000/svg"
   xmlns:sodipodi="http://sodipodi.sourceforge.net/DTD/sodipodi-0.dtd"
   xmlns:inkscape="http://www.inkscape.org/namespaces/inkscape"
   version="1.1"
   id="svg844"
   width="959"
   height="612"
   viewBox="0 0 959 612"
   sodipodi:docname="lines.svg"
   inkscape:version="1.0.1 (3bc2e813f5, 2020-09-07)">
  <metadata
     id="metadata850">
    <rdf:RDF>
      <cc:Work
         rdf:about="">
        <dc:format>image/svg+xml</dc:format>
        <dc:type
           rdf:resource="http://purl.org/dc/dcmitype/StillImage" />
        <dc:title></dc:title>
      </cc:Work>
    </rdf:RDF>
  </metadata>
  <defs
     id="defs848" />
  <sodipodi:namedview
     pagecolor="#ffffff"
     bordercolor="#666666"
     borderopacity="1"
     objecttolerance="10"
     gridtolerance="10"
     guidetolerance="10"
     inkscape:pageopacity="0"
     inkscape:pageshadow="2"
     inkscape:window-width="1842"
     inkscape:window-height="1051"
     id="namedview846"
     showgrid="false"
     inkscape:zoom="4.0670194"
     inkscape:cx="1005.41"
     inkscape:cy="354.46878"
     inkscape:window-x="1669"
     inkscape:window-y="-9"
     inkscape:window-maximized="1"
     inkscape:current-layer="layer1" />
  <g
     inkscape:groupmode="layer"
     id="layer1"
     inkscape:label="Image 1">
    <path
       style="fill:#ffffff;fill-opacity:1;stroke:#ffffff"
       d="m 2.6871161,628.95988 c -0.3240882,0 -0.9084306,-76.82801 -0.9084306,-150.98635 V 343.14021 c -0.223872,-42.67529 0.03519,-24.47918 -0.0072,-68 L 2.0250955,139.62534 2.9741401,-17.367612 H 482.30936 l 476.13871,0 -0.44183,156.992952 0.2536,135.51487 c 0.18123,17.92505 0.0983,43.90373 0,68 l -0.2536,135.01482 0.23816,150.75119 -475.97204,0.23516 C 224.13901,629.26891 3.0112556,628.95988 2.6871461,628.95988 Z m 8.5833309,-4.42834 c 0,-0.18976 -0.900001,-1.1595 -2.0000009,-2.15499 -1.94122,-1.75677 -2,-1.74663 -2,0.34501 0,1.48832 0.61872,2.15499 2,2.15499 1.0999999,0 2.0000009,-0.15526 2.0000009,-0.34501 z M 479.6139,500.76941 V 392.39863 l -7.20355,-0.70982 c -19.2505,-1.89689 -37.7565,-11.28264 -51.98461,-26.36518 -21.64383,-22.9436 -28.23231,-57.47963 -16.6321,-87.18342 11.15153,-28.55488 38.72561,-49.60321 68.87378,-52.57393 l 6.94648,-0.68449 V 110.11811 l 0.69546,-123.455982 H 252.80935 c -175.778808,0 -237.33521,0.27174 -237.33521,1.19528 0,1.642929 -5.07256,13.1976068 -6.6870899,13.1976068 -1.06825,0 -2.0083646,25.5207722 -2.0083646,71.0851922 V 128.14021 H 90.113898 163.61389 v 57.44911 57.44911 l 3.56209,2.71694 c 9.78357,7.46229 21.26308,25.80383 25.63148,40.95305 3.2947,11.4257 3.2947,32.43788 0,43.86358 -4.3684,15.14922 -15.84791,33.49076 -25.63148,40.95305 l -3.56209,2.71694 v 57.9491 57.94911 H 90.113898 6.7786855 v 55.5 c 0,45.15164 0.7365606,71.23635 1.8046706,71.23635 1.6145299,0 6.6870909,5.16178 6.6870909,6.80472 0,0.92354 61.556402,1.19528 237.335203,1.19528 h 227.50001 z m 467.35987,121.92834 c 0,-1.64294 3.8432,-5.8212 5.4577,-5.8212 1.0681,0 0.82114,-26.08471 0.82114,-71.23635 v -55.5 l -80.13872,0 h -73.5 v -57.94911 -57.9491 l -3.56209,-2.71694 c -9.78357,-7.46229 -21.26308,-25.80383 -25.63148,-40.95305 -3.2947,-11.4257 -3.2947,-32.43788 0,-43.86358 4.3684,-15.14922 15.84791,-33.49076 25.63148,-40.95305 l 3.56209,-2.71694 v -57.44911 -57.44911 h 73.5 l 80.13872,0 V 65.747319 c 0,-45.56442 0.45086,-71.085192 -0.61744,-71.085192 -1.6145,0 -5.4577,-6.145311 -5.4577,-7.788241 0,-0.92354 -59.58931,-0.211758 -235.36812,-0.211758 H 484.30936 L 483.6139,116.511 v 108.37079 l 7.20355,0.70982 c 29.9644,2.95262 57.46587,24.01438 68.61552,52.5486 7.57256,19.37973 7.38835,42.83964 -0.4886,62.22493 -7.02542,17.28968 -22.80546,34.46665 -39.31129,42.79134 -7.51913,3.79226 -18.0701,6.9775 -27.26918,8.23232 l -8.75,1.19356 v 108.27891 l 0.49176,124.01528 h 227.49999 c 175.77881,0 235.36812,-1.25526 235.36812,-2.1788 z m 6.7706,0.1788 c 0,-1.1 -0.1552,-2 -0.345,-2 -0.1897,0 -1.1595,0.9 -2.155,2 -1.7567,1.94121 -1.7466,2 0.3451,2 1.4883,0 2.1549,-0.61872 2.1549,-2 z M 158.61389,309.14021 v -177 H 87.613898 6.7786855 v 47 47 h 34.3352125 24.5 v 83 83 h -24.5 -34.3352125 v 46.99999 47 H 87.613898 158.61389 Z m -47.87965,0.64501 c -0.87143,-1.05001 -0.81537,-1.65323 0.23464,-2.52466 1.05001,-0.87143 1.65323,-0.81537 2.52466,0.23464 0.87143,1.05001 0.81537,1.65323 -0.23464,2.52466 -1.05001,0.87143 -1.65323,0.81537 -2.52466,-0.23464 z M 953.25261,439.1402 v -46.99999 l -31.13872,0 h -24.5 v -83 -83 h 24.5 l 31.13872,0 v -47 -47 l -77.63872,0 h -71 v 177 176.99999 h 71 l 77.63872,0 z M 849.73424,309.78522 c -0.87143,-1.05001 -0.81537,-1.65323 0.23464,-2.52466 1.05001,-0.87143 1.65323,-0.81537 2.52466,0.23464 0.87143,1.05001 0.81537,1.65323 -0.23464,2.52466 -1.05001,0.87143 -1.65323,0.81537 -2.52466,-0.23464 z M 60.613898,309.14021 v -79 h -22 -31.8352125 v 79 79 h 31.8352125 22 z M 479.6139,308.60577 v -79.53445 l -5.25,0.63461 c -29.71774,3.59221 -53.81337,20.97812 -65.40716,47.19373 -8.38101,18.95095 -8.38101,44.53015 0,63.4811 12.09193,27.34201 37.22293,44.7019 68.90716,47.59941 1.65334,0.1512 1.75,-4.23301 1.75,-79.3744 z m 20.81905,76.93265 c 3.47549,-0.7708 9.70361,-2.96522 13.84028,-4.87648 28.89547,-13.35052 46.32666,-40.44992 46.32666,-72.02173 0,-41.21917 -29.65271,-73.84735 -71.73599,-78.93428 l -5.25,-0.63461 v 79.56889 79.56889 l 5.25,-0.63461 c 2.8875,-0.34904 8.09357,-1.26527 11.56905,-2.03607 z m 452.81966,-155.39821 -28.63877,0 h -21.99995 v 79 79 h 21.99995 l 28.63877,0 z M 172.19954,360.14844 c 25.60668,-29.99899 25.37758,-72.7451 -0.55622,-103.78199 -2.76157,-3.30497 -5.69793,-6.26879 -6.52524,-6.58626 -1.32854,-0.50981 -1.50419,6.37378 -1.50419,58.94811 v 59.52532 l 2.07298,-1.45197 c 1.14014,-0.79859 4.07084,-3.79253 6.51267,-6.65321 z m 627.17912,-81.18647 -0.26477,-30.32176 -5.32501,5.48433 c -11.23954,11.57581 -19.13953,28.43555 -21.35082,45.56579 -2.84683,22.05352 5.64205,47.2868 21.35082,63.46555 l 5.32501,5.48433 0.26477,-36.07113 c 0.11982,-16.32324 0.14562,-36.93014 0,-53.60711 z M 9.9741401,-11.337873 c 1.7567699,-1.941219 1.7466299,-1.999999 -0.34501,-1.999999 -1.48832,0 -2.15499,0.61872 -2.15499,1.999999 0,1.1 0.15525,2.0000001 0.34501,2.0000001 0.18976,0 1.1595,-0.9000001 2.15499,-2.0000001 z m 943.9739299,0 c 0,-1.381279 -0.6666,-1.999999 -2.1549,-1.999999 -2.0917,0 -2.1018,0.0588 -0.3451,1.999999 0.9955,1.1 1.9653,8.3928885 2.155,8.3928885 0.1898,0 0.345,-7.2928885 0.345,-8.3928885 z"
       id="path1420-4"
       sodipodi:nodetypes="sscccccccccccssscssscssssscccsssscccccsssscccccssssccssscccccsssscccccsssscccssssscccssscssscscccccccccccccccscssscscccccccccccccccscssscscccccccsssssssscsscccsscsccccccsssscssscssscsscssscssssss" />
  </g>
</svg>
